<svg width="122" height="38" viewBox="0 0 122 38" fill="none" xmlns="http://www.w3.org/2000/svg">
<path fill-rule="evenodd" clip-rule="evenodd" d="M19.3435 17.9025C18.4286 17.0686 17.2291 16.7348 15.7443 16.9015C14.2879 17.0642 13.1611 17.6729 12.3614 18.7253C11.561 19.7789 11.2586 21.1606 11.4512 22.8702L12.9895 36.2825C14.8521 36.8649 16.8605 37.1578 19.0084 37.1578C19.0256 37.1578 19.0491 37.1566 19.0663 37.1566C20.3396 37.1534 21.5626 37.0452 22.7353 36.8339L21.0051 21.7169C20.8128 20.0073 20.2593 18.7357 19.3436 17.9026" fill="#269D8E"/>
<path fill-rule="evenodd" clip-rule="evenodd" d="M33.425 19.7012C33.425 19.9443 33.3635 20.1245 33.182 20.306C33.0595 20.4277 32.8172 20.5522 32.5731 20.5522L30.8728 20.549C30.384 20.549 30.0233 20.1846 30.0233 19.6985C30.0233 16.6627 28.8713 13.5686 26.4991 11.2034C24.1234 8.83496 21.0297 7.67831 17.9854 7.67831C17.4982 7.67831 17.1578 7.31307 17.1578 6.8285V5.13198C17.1578 4.88928 17.1921 4.70547 17.3768 4.52206C17.5584 4.34103 17.7132 4.28174 17.9554 4.28095C21.9724 4.27896 25.8723 5.73951 28.9157 8.77484C31.9598 11.8109 33.4841 15.7533 33.4251 19.7016L33.425 19.7012ZM36.5164 11.3172C35.5894 9.07605 34.3018 7.11697 32.655 5.4404C31.0074 3.76422 29.0334 2.43772 26.735 1.46293C24.4362 0.487746 21.8968 0 19.1172 0C19.1001 0 19.0829 0.00119358 19.0657 0.00119358C16.3077 0.00755937 13.783 0.502497 11.499 1.48882C9.19986 2.48145 7.20953 3.82385 5.52844 5.51795C3.84657 7.21088 2.43001 9.17869 1.50391 11.4194C0.576569 13.6606 0 15.9957 0 18.5268V18.6816C0 21.214 0.576592 23.6004 1.50313 25.8415C2.42969 28.0822 3.7724 30.0413 5.41998 31.7167C6.06002 32.368 6.76666 32.9656 7.50646 33.5103L5.33373 14.1454C5.35927 14.0479 5.3888 13.9528 5.41553 13.8597L10.3683 13.3043L10.7553 16.739C11.0554 16.1685 11.3946 15.6302 11.7709 15.1221C12.1483 14.6145 12.5996 14.1466 13.1256 13.7201C13.6515 13.2948 14.2416 12.9391 14.8952 12.6538C15.5492 12.3681 16.3046 12.178 17.1617 12.0821C19.6505 11.8032 21.6579 12.3494 23.1838 13.7177C24.7089 15.0863 25.6179 17.0569 25.9076 19.6275L27.6637 35.1894C29.5308 34.258 31.1783 33.076 32.6028 31.6412C34.2839 29.9471 35.5888 27.7808 36.5145 25.5401C37.4418 23.2989 37.9542 20.9666 37.9542 18.1816H37.9075V18.4768C37.9075 15.9452 37.4438 13.5588 36.5165 11.3176" fill="#269D8E"/>
<path fill-rule="evenodd" clip-rule="evenodd" d="M47.6405 14.8031H48.7167V16.8828C49.0961 16.2259 49.6093 15.672 50.2529 15.2189C50.8965 14.7669 51.7313 14.5405 52.756 14.5405C53.4583 14.5405 54.0879 14.6539 54.6446 14.8799C55.2 15.1063 55.6724 15.4242 56.0607 15.832C56.4478 16.2406 56.7411 16.726 56.9382 17.2874C57.1361 17.85 57.2343 18.467 57.2343 19.1379V25.9676H56.1589V19.3348C56.1589 18.1818 55.8517 17.2587 55.2368 16.5657C54.6219 15.8726 53.7444 15.5253 52.6028 15.5253C52.0462 15.5253 51.5342 15.6243 51.0658 15.8213C50.5965 16.0186 50.1875 16.2915 49.836 16.6425C49.4844 16.9922 49.2103 17.4124 49.0128 17.9005C48.8149 18.3903 48.7167 18.9262 48.7167 19.5094V25.9676H47.6406L47.6405 14.8031Z" fill="#269D8E"/>
<path fill-rule="evenodd" clip-rule="evenodd" d="M64.4584 25.2013C65.12 25.2013 65.7341 25.0744 66.2999 24.8206C66.8665 24.5659 67.3522 24.2249 67.7568 23.7961C68.1602 23.3676 68.4766 22.8626 68.7052 22.2814C68.9327 21.7001 69.0464 21.0826 69.0464 20.4294V20.3856C69.0464 19.7172 68.9295 19.0889 68.6941 18.5005C68.4586 17.9125 68.1314 17.4004 67.712 16.9644C67.293 16.5283 66.8003 16.1869 66.2337 15.9402C65.667 15.6932 65.0617 15.5694 64.4149 15.5694C63.7521 15.5694 63.138 15.6968 62.5722 15.951C62.006 16.206 61.5204 16.547 61.1158 16.9751C60.7111 17.404 60.3947 17.9085 60.1673 18.4898C59.9399 19.0714 59.8261 19.6889 59.8261 20.3418V20.3856C59.8261 21.0536 59.9438 21.6822 60.1789 22.2702C60.4143 22.8587 60.7411 23.3711 61.16 23.8072C61.5794 24.2428 62.0722 24.5842 62.6384 24.8309C63.2042 25.078 63.8116 25.2013 64.4583 25.2013L64.4584 25.2013ZM64.4148 26.2302C63.5801 26.2302 62.8156 26.073 62.1204 25.7599C61.4249 25.4464 60.8212 25.0266 60.3092 24.501C59.7961 23.9759 59.3971 23.3628 59.1121 22.6621C58.8268 21.9619 58.684 21.2171 58.684 20.4293V20.3855C58.684 19.597 58.8268 18.8529 59.1121 18.1523C59.397 17.4521 59.8 16.8318 60.32 16.2915C60.8391 15.752 61.45 15.3251 62.1531 15.0112C62.8549 14.6977 63.6235 14.5405 64.4582 14.5405C65.2922 14.5405 66.0567 14.6977 66.7518 15.0112C67.4477 15.3251 68.051 15.7441 68.5638 16.2705C69.0757 16.7956 69.4748 17.4087 69.7601 18.109C70.0462 18.8093 70.1879 19.5536 70.1879 20.3418V20.3856C70.1879 21.1738 70.0462 21.9182 69.7601 22.6188C69.4748 23.319 69.0722 23.9393 68.5531 24.4796C68.0331 25.0191 67.4214 25.4465 66.7191 25.7599C66.0168 26.073 65.2483 26.2302 64.4147 26.2302" fill="#269D8E"/>
<path fill-rule="evenodd" clip-rule="evenodd" d="M75.5886 26.1648C75.1497 26.1648 74.7399 26.1059 74.3596 25.9897C73.9793 25.8731 73.6457 25.6869 73.3604 25.4311C73.0751 25.1761 72.8524 24.855 72.6908 24.4683C72.5296 24.082 72.4494 23.6253 72.4494 23.1001V15.7885H70.825V14.803H72.4494V11.2354H73.5256V14.803H77.4552V15.7885H73.5256V22.9735C73.5256 23.7748 73.7338 24.3354 74.1504 24.6557C74.5682 24.976 75.1061 25.1359 75.7645 25.1359C76.0422 25.1359 76.3064 25.1085 76.5542 25.0528C76.8036 24.9979 77.0897 24.9016 77.4113 24.7639V25.7705C77.1184 25.9022 76.8291 26.0001 76.5442 26.0665C76.2589 26.1318 75.9401 26.1648 75.5885 26.1648" fill="#269D8E"/>
<path fill-rule="evenodd" clip-rule="evenodd" d="M79.1461 25.9675H80.2215V14.8031H79.1461V25.9675ZM79.0137 11.8922H80.3524V10.4253H79.0137V11.8922Z" fill="#269D8E"/>
<path fill-rule="evenodd" clip-rule="evenodd" d="M90.1243 23.7576C90.8825 23.7576 91.5788 23.6152 92.2121 23.3303C92.8457 23.0458 93.3892 22.6591 93.8405 22.1701C94.2922 21.6812 94.6461 21.1086 94.9011 20.4513C95.1564 19.7949 95.2845 19.0942 95.2845 18.3502V18.306C95.2845 17.5624 95.1564 16.8582 94.9011 16.1938C94.6461 15.5301 94.2894 14.9536 93.83 14.4643C93.3712 13.9761 92.8209 13.5854 92.1793 13.293C91.5372 13.0018 90.8381 12.8558 90.0808 12.8558C89.3222 12.8558 88.6271 12.9978 87.9927 13.2823C87.359 13.5675 86.8159 13.9535 86.3639 14.4424C85.9118 14.9314 85.559 15.5047 85.3041 16.1612C85.0483 16.8181 84.9214 17.5179 84.9214 18.2623V18.3061C84.9214 19.0505 85.0483 19.7547 85.3041 20.4188C85.559 21.0832 85.9166 21.6597 86.3751 22.1478C86.8348 22.6376 87.3842 23.0279 88.0255 23.3191C88.6671 23.6116 89.367 23.7576 90.1243 23.7576V23.7576ZM90.0809 26.2307C88.8954 26.2307 87.8112 26.0226 86.8308 25.6068C85.8504 25.1915 85.0088 24.6257 84.3066 23.9103C83.6043 23.1957 83.0548 22.3598 82.6598 21.4038C82.2647 20.4481 82.0676 19.43 82.0676 18.3502V18.3061C82.0676 17.2266 82.2647 16.2081 82.6598 15.2529C83.0548 14.2972 83.6114 13.4578 84.3285 12.7352C85.0451 12.0123 85.8946 11.4402 86.875 11.0169C87.8554 10.5936 88.9388 10.3823 90.1243 10.3823C91.3107 10.3823 92.3932 10.5896 93.3744 11.0062C94.3548 11.4211 95.1963 11.9877 95.8986 12.7023C96.6013 13.4177 97.1499 14.2536 97.5454 15.2088C97.9412 16.1653 98.1383 17.1834 98.1383 18.2624V18.3061C98.1383 19.3867 97.9412 20.4045 97.5454 21.3602C97.15 22.3163 96.5937 23.1549 95.8767 23.8778C95.1596 24.6003 94.3109 25.1732 93.3305 25.5962C92.3493 26.0195 91.2659 26.2307 90.0809 26.2307" fill="#269D8E"/>
<path fill-rule="evenodd" clip-rule="evenodd" d="M99.4507 14.4092H102.129V16.2231C102.318 15.9426 102.527 15.6812 102.753 15.4388C102.98 15.1965 103.241 14.9789 103.541 14.7867C103.84 14.5958 104.169 14.445 104.527 14.3348C104.883 14.2234 105.289 14.1685 105.742 14.1685C107.055 14.1685 108.07 14.5699 108.784 15.372C109.5 16.1749 109.857 17.2547 109.857 18.6122V25.9675H107.179V19.4159C107.179 18.5127 106.965 17.8173 106.537 17.3302C106.109 16.8421 105.502 16.5982 104.719 16.5982C103.95 16.5982 103.326 16.8492 102.847 17.3517C102.368 17.8546 102.129 18.5564 102.129 19.4588V25.9674H99.4507L99.4507 14.4092Z" fill="#269D8E"/>
<path fill-rule="evenodd" clip-rule="evenodd" d="M119.366 19.3783C119.322 18.9554 119.226 18.5576 119.08 18.1852C118.934 17.8131 118.737 17.4921 118.487 17.2219C118.238 16.9517 117.942 16.7369 117.598 16.5758C117.254 16.4162 116.863 16.3354 116.424 16.3354C115.604 16.3354 114.927 16.6167 114.393 17.1785C113.858 17.7399 113.533 18.4731 113.415 19.3783L119.366 19.3783ZM116.731 26.2299C115.897 26.2299 115.118 26.0839 114.393 25.7923C113.669 25.5006 113.039 25.0912 112.504 24.5661C111.971 24.0413 111.55 23.4099 111.243 22.6727C110.935 21.9362 110.781 21.1221 110.781 20.2321V20.188C110.781 19.3561 110.92 18.5754 111.198 17.8458C111.477 17.1161 111.868 16.4779 112.373 15.9305C112.877 15.3826 113.474 14.953 114.162 14.6386C114.85 14.3251 115.612 14.168 116.446 14.168C117.367 14.168 118.176 14.3363 118.872 14.6717C119.567 15.0075 120.145 15.4595 120.605 16.0284C121.067 16.5981 121.415 17.2586 121.649 18.0105C121.883 18.7621 122 19.553 122 20.3854C122 20.502 121.997 20.6225 121.989 20.7462C121.982 20.8704 121.97 20.9985 121.956 21.129H113.438C113.584 22.0783 113.961 22.804 114.569 23.3077C115.176 23.8118 115.911 24.0625 116.776 24.0625C117.434 24.0625 118.005 23.9463 118.488 23.7127C118.971 23.4796 119.445 23.1366 119.915 22.6839L121.473 24.0625C120.918 24.7198 120.256 25.2453 119.487 25.6393C118.718 26.0335 117.799 26.2301 116.731 26.2301L116.731 26.2299Z" fill="#269D8E"/>
</svg>
