<?xml version="1.0" encoding="UTF-8"?>
<svg id="Warstwa_1" xmlns="http://www.w3.org/2000/svg" version="1.1" viewBox="0 0 1366 268">
  <!-- Generator: Adobe Illustrator 30.1.0, SVG Export Plug-In . SVG Version: 2.1.1 Build 136)  -->
  <defs>
    <style>
      .st0 {
        fill: #1d1d1b;
      }
    </style>
  </defs>
  <g>
    <path class="st0" d="M205.8,89.9h33.2v23.3c3.5-14.5,12.9-24.7,36.2-24.7h2.7v31.9h-13.1c-20.1,0-25.8,9.1-25.8,31.1v64.9h-33.3v-126.5h0Z"/>
    <path class="st0" d="M280.6,182.9c0-28.4,21.2-34.9,49.6-41,23.3-4.6,35.1-5.6,35.9-12.6v-1.3c0-7.5-6.7-14.5-23.9-14.5s-25.2,8.6-26,19.8v1.9h-33c1.1-28.7,23.6-47.7,59.3-47.7s55.3,15,55.3,49.4v79.7h-31.9v-17.2c-8,13.1-22.5,20.4-41.3,20.4-27.1,0-44-14.9-44-36.9ZM366.2,164.2v-10.7c-7.2,4.3-19,6.4-29.5,9.1-12.9,3.2-22.5,7.5-22.5,18.8s6.7,14.5,18.2,14.5c15.8-.1,33-8.1,33.8-31.7Z"/>
    <path class="st0" d="M404.5,89.9h34.3l21.7,80.5,23.1-80.5h30.8l23.1,81.3,21.5-81.3h32.7l-39.4,126.6h-29.8l-24.1-86.6-23.9,86.6h-30l-40-126.6Z"/>
    <path class="st0" d="M593.1,153.4c0-38.6,26.8-66,65.2-66s64.9,27.4,64.9,66-27.4,65.4-65.7,65.4c-38.1.1-64.4-26.7-64.4-65.4ZM689.4,154.2v-1.1c0-24.1-11.8-38.6-31.1-38.6s-31.4,14.5-31.4,38.6v1.1c0,23.6,11.5,37.6,30.8,37.6,19.6,0,31.7-14,31.7-37.6Z"/>
    <path class="st0" d="M740.6,35.9h33.5v180.5h-33.5V35.9Z"/>
    <path class="st0" d="M796.3,165.8v-75.9h33.3v74c0,16.9,8,26.8,23.1,26.8s24.7-14.8,24.7-36.5v-64.3h33.3v126.6h-33.3v-18c-6.7,13.1-18.2,20.4-34.6,20.4-28.8,0-46.5-20.4-46.5-53.1Z"/>
    <path class="st0" d="M942.4,182.9v-66.3h-18v-26.7h18v-23.9l32.5-18.2v42.1h24.9v26.8h-25.2v63c0,6.2,2.9,8.9,9.1,9.1h14.8v27.6h-25.8c-24.4-1.3-29.7-12.5-30.3-33.5Z"/>
    <path class="st0" d="M1021.8,38.9h34.6v32.5h-34.6v-32.5h0ZM1022.3,89.9h33.5v126.6h-33.5v-126.6h0Z"/>
    <path class="st0" d="M1072.6,153.4c0-38.6,26.8-66,65.2-66s64.9,27.4,64.9,66-27.4,65.4-65.7,65.4c-38.1.1-64.4-26.7-64.4-65.4ZM1168.9,154.2v-1.1c0-24.1-11.8-38.6-31.1-38.6s-31.4,14.5-31.4,38.6v1.1c0,23.6,11.5,37.6,30.8,37.6,19.6,0,31.7-14,31.7-37.6Z"/>
    <path class="st0" d="M1219.7,89.9h33.3v20.7c6.7-14.8,19-23.3,37-23.3,27.6,0,44,18.5,44,53.4v75.9h-33.3v-74c0-17.7-6.7-26.8-22.3-26.8s-25.5,12.9-25.5,36.5v64.4h-33.3v-126.8h.1Z"/>
  </g>
  <g>
    <g>
      <ellipse class="st0" cx="74.2" cy="121.3" rx="18.7" ry="28.8" transform="translate(-62.4 81.6) rotate(-42.3)"/>
      <ellipse class="st0" cx="59.4" cy="163.4" rx="19.3" ry="27.6" transform="translate(-112.6 138.1) rotate(-61.7)"/>
      <ellipse class="st0" cx="114" cy="99" rx="18.7" ry="28.8" transform="translate(-23.1 35.7) rotate(-16.2)"/>
      <ellipse class="st0" cx="157.6" cy="108.3" rx="27.6" ry="19.3" transform="translate(40.8 259.8) rotate(-86.9)"/>
    </g>
    <path class="st0" d="M172.5,184.7c-4.4,6.1-11.5,9.3-20.5,9.1-4.9,0-9.4-1.1-12.1-1.9-.7,2.7-2.2,7.1-4.7,11.3-4.6,7.7-10.9,12.1-18.4,12.7-10,.8-19.4-4.5-24.1-13-1.1-2-2-4.2-2.6-6.5-1-4.5-.9-9,.5-13.5,1.5-5.3,3.8-12.6,6-20.1.4-1.4.8-2.7,1.3-4.1,1.3-4.3,2.6-8.5,3.7-12.2,1.2-4,4-7.4,7.6-9.4h0c3.6-2,7.9-2.6,12-1.6,3.8,1,8.1,2.1,12.4,3.2,1.3.4,2.7.7,4.1,1.1,7.5,1.9,15,3.8,20.3,5.3,4.5,1.2,8.5,3.5,11.7,6.7,8.9,8.7,10.1,22.9,2.8,32.9Z"/>
  </g>
</svg>