<?xml version="1.0" encoding="UTF-8"?>
<svg xmlns="http://www.w3.org/2000/svg" version="1.1" viewBox="0 0 3000.9 1000">
  <defs>
    <style>
      .cls-1 {
        stroke: #000;
      }

      .cls-1, .cls-2 {
        stroke-miterlimit: 10;
        stroke-width: 7.82px;
      }

      .cls-3 {
        fill: #faaf40;
      }

      .cls-2 {
        fill: #013d2b;
        stroke: #013d2b;
      }
    </style>
  </defs>
  <!-- Generator: Adobe Illustrator 28.6.0, SVG Export Plug-In . SVG Version: 1.2.0 Build 709)  -->
  <g>
    <g id="Layer_1">
      <line class="cls-3" x1="-3107.2" y1="7691.06" x2="-3107.2" y2="6667.85"/>
      <g>
        <path class="cls-2" d="M302.29,762.11v-432.17h72.07l.25,44.83c8.76-17.13,22.31-30.38,40.65-39.75,18.32-9.36,38.45-14.05,60.37-14.05,28.29,0,52.69,6.38,73.22,19.13,20.52,12.76,36.56,30.48,48.12,53.2,11.55,22.71,17.33,49.61,17.33,80.69s-5.38,57.98-16.14,81.89c-10.76,23.91-26.4,42.74-46.92,56.49-20.53,13.75-45.53,20.62-75.02,20.62-21.92,0-41.94-4.18-60.07-12.55-18.14-8.37-31.78-19.92-40.95-34.67v176.33h-72.92ZM375.81,477.58c0,17.54,3.38,33.08,10.16,46.62,6.77,13.55,16.44,24.21,28.99,31.98,12.55,7.77,27.2,11.66,43.93,11.66s31.88-3.89,44.23-11.66c12.35-7.77,21.71-18.43,28.09-31.98,6.37-13.54,9.56-29.08,9.56-46.62s-3.19-33.07-9.56-46.62c-6.38-13.54-15.75-24.21-28.09-31.98-12.36-7.77-27.1-11.66-44.23-11.66s-31.38,3.79-43.93,11.36c-12.55,7.57-22.22,18.14-28.99,31.68-6.78,13.55-10.16,29.29-10.16,47.22Z"/>
        <path class="cls-2" d="M804.38,633c-29.09,0-54.9-6.68-77.41-20.02-22.52-13.35-40.15-31.68-52.9-54.99-12.76-23.31-19.13-50.11-19.13-80.4s6.17-57.78,18.53-81.29c12.35-23.51,29.68-41.94,52-55.29,22.31-13.35,47.82-20.02,76.51-20.02s55.59,6.28,77.11,18.83c21.52,12.55,38.15,29.99,49.91,52.3,11.75,22.32,17.63,49.01,17.63,80.1v22.12l-253.44.6,1.2-46.62h179.92c0-20.32-6.48-36.66-19.43-49.01-12.95-12.35-30.39-18.53-52.3-18.53-17.14,0-31.59,3.59-43.34,10.76-11.76,7.17-20.62,17.93-26.6,32.28-5.98,14.35-8.97,31.89-8.97,52.6,0,31.89,6.87,55.99,20.62,72.33,13.75,16.34,34.16,24.51,61.27,24.51,19.92,0,36.36-3.78,49.31-11.36,12.94-7.57,21.42-18.32,25.4-32.28h67.54c-6.38,32.28-22.22,57.59-47.52,75.91-25.31,18.33-57.29,27.5-95.94,27.5Z"/>
        <path class="cls-2" d="M972.95,329.94h186.49v60.97h-186.49v-60.97ZM1102.65,625.23h-72.92V237.89h72.92v387.33Z"/>
        <path class="cls-1" d="M1185.15,476.99c0-30.28,6.28-57.18,18.83-80.69,12.55-23.51,29.89-41.94,52-55.29,22.12-13.35,47.72-20.02,76.81-20.02,40.24,0,73.22,10.46,98.93,31.38,25.7,20.92,40.54,49.12,44.53,84.58h-72.92c-4.39-16.74-12.46-29.38-24.21-37.96-11.76-8.56-26.4-12.85-43.93-12.85-15.15,0-28.6,3.69-40.35,11.06-11.76,7.38-20.83,17.84-27.2,31.38-6.38,13.55-9.56,29.69-9.56,48.42s2.99,34.87,8.97,48.42c5.98,13.55,14.64,24.01,26,31.38,11.36,7.38,24.81,11.06,40.35,11.06,18.32,0,33.57-4.38,45.73-13.15,12.15-8.76,20.22-21.31,24.21-37.66h73.52c-3.19,23.12-11.26,43.34-24.21,60.67-12.95,17.33-29.59,30.89-49.91,40.65-20.32,9.76-43.44,14.64-69.34,14.64-29.89,0-55.99-6.48-78.3-19.43-22.32-12.94-39.55-31.08-51.7-54.39-12.16-23.31-18.23-50.71-18.23-82.19Z"/>
        <path class="cls-1" d="M1513.9,476.99c0-30.68,6.77-57.68,20.32-80.99,13.54-23.31,32.28-41.54,56.19-54.69,23.91-13.15,51-19.73,81.29-19.73s57.88,6.58,81.59,19.73c23.7,13.15,42.34,31.38,55.89,54.69,13.54,23.31,20.32,50.31,20.32,80.99s-6.78,57.68-20.32,80.99c-13.55,23.31-32.18,41.54-55.89,54.69-23.71,13.15-50.91,19.73-81.59,19.73s-57.38-6.58-81.29-19.73c-23.91-13.15-42.64-31.38-56.19-54.69-13.55-23.31-20.32-50.3-20.32-80.99ZM1586.82,476.99c0,17.93,3.68,33.68,11.06,47.22,7.37,13.55,17.33,24.12,29.89,31.68,12.55,7.57,27.2,11.36,43.93,11.36s31.47-3.78,44.23-11.36c12.75-7.57,22.71-18.13,29.89-31.68,7.17-13.54,10.76-29.29,10.76-47.22s-3.59-34.16-10.76-47.52c-7.17-13.35-17.14-23.81-29.89-31.38-12.76-7.57-27.5-11.36-44.23-11.36s-31.38,3.79-43.93,11.36c-12.55,7.57-22.52,18.03-29.89,31.38-7.38,13.36-11.06,29.2-11.06,47.52Z"/>
        <path class="cls-1" d="M1957.42,625.23l-117.16-295.28h77.71l51.41,135.69c6.37,17.54,11.85,33.58,16.44,48.12,4.58,14.55,7.86,25.81,9.86,33.77,1.99-9.16,5.47-21.01,10.46-35.57,4.98-14.54,10.66-29.98,17.04-46.32l53.8-135.69h75.32l-123.13,295.28h-71.73Z"/>
        <path class="cls-1" d="M2312.47,633c-29.09,0-54.9-6.68-77.41-20.02-22.52-13.35-40.15-31.68-52.9-54.99-12.76-23.31-19.13-50.11-19.13-80.4s6.17-57.78,18.53-81.29c12.35-23.51,29.68-41.94,52-55.29,22.31-13.35,47.82-20.02,76.51-20.02s55.59,6.28,77.11,18.83c21.52,12.55,38.15,29.99,49.91,52.3,11.75,22.32,17.63,49.01,17.63,80.1v22.12l-253.44.6,1.2-46.62h179.92c0-20.32-6.48-36.66-19.43-49.01-12.95-12.35-30.39-18.53-52.3-18.53-17.14,0-31.59,3.59-43.34,10.76-11.76,7.17-20.62,17.93-26.6,32.28-5.98,14.35-8.97,31.89-8.97,52.6,0,31.89,6.87,55.99,20.62,72.33,13.75,16.34,34.16,24.51,61.27,24.51,19.92,0,36.36-3.78,49.31-11.36,12.94-7.57,21.42-18.32,25.4-32.28h67.54c-6.38,32.28-22.22,57.59-47.52,75.91-25.31,18.33-57.29,27.5-95.94,27.5Z"/>
        <path class="cls-1" d="M2698.61,328.75v67.54h-26.9c-26.7,0-47.62,7.08-62.76,21.22-15.15,14.15-22.71,35.57-22.71,64.26v143.46h-72.92v-294.69h68.74l5.98,60.97h-7.17c3.98-19.52,13.35-35.46,28.09-47.82,14.74-12.35,33.87-18.53,57.38-18.53,5.17,0,10.36.21,15.54.6,5.17.4,10.76,1.4,16.74,2.99Z"/>
      </g>
    </g>
  </g>
</svg>