<?xml version="1.0" encoding="UTF-8"?>
<svg id="Warstwa_1" data-name="Warstwa 1" xmlns="http://www.w3.org/2000/svg" viewBox="0 0 1200 1200">
  <path d="M900.95,550.45c7.73-21.74,48.61-19.12,70.22-17.79,16.22,1,49.26,4.15,43.68,27.4-2.18,9.09-32.01,16.01-38.77,28.56-10.85,20.15-3.9,77.8-33.92,79.53-33.39,1.92-12.33-54.81-13.77-73.47-1.38-17.86-24.99-13.6-28.06-29.95-.66-3.51-.58-10.91.62-14.28Z"/>
  <path d="M844.27,532.03c14.94-.46,47.29,3.19,42.11,25.01-3.14,13.21-46.58,18.32-47.51,25.11-.67,4.87,24.35,11.19,23.76,17.4-.69,7.31-29.46,12.72-28.61,18.59.82,5.67,36.76,11.5,38.26,23.82,2.87,23.61-36.12,27.12-52.62,25.82-38.78-3.06-40.19-22.95-36.74-55.88,4.5-42.95,10.15-78.28,61.35-79.87Z"/>
  <path d="M577.46,532.03c14.94-.46,47.29,3.19,42.11,25.01-3.14,13.21-46.58,18.32-47.51,25.11-.67,4.87,24.35,11.19,23.76,17.4-.69,7.31-29.46,12.72-28.61,18.59.82,5.67,36.76,11.5,38.26,23.82,2.87,23.61-36.12,27.12-52.62,25.82-38.78-3.06-40.19-22.95-36.74-55.88,4.5-42.95,10.15-78.28,61.35-79.87Z"/>
  <path d="M334.32,531.83c7.84-.42,15.44,4.57,18.55,11.6,6.69,15.1-.25,55.31-3.13,72.82-3.33,20.23-7.42,55.22-35.79,51.69-20.63-2.56-17.47-31.93-16.05-46.76,1.3-13.53,3.75-30.28,6.09-43.74,3.03-17.43,8.27-44.43,30.32-45.63Z"/>
  <path d="M219.89,531.65c8.99-1.09,17.28,2.16,21.54,10.46,9.03,17.57-10.41,50.72-5.02,69.97,4.94,17.61,37.89,13.14,40.39,27.32,1.94,10.99-5.19,19.15-14.63,23.42-19.85,8.98-72.07,10.36-76.84-17.98-3.52-20.88,4.57-87.56,18.45-103.9,3.87-4.55,10.1-8.57,16.1-9.3Z"/>
  <path d="M748.83,563.29l-.35-.3c-20.36-16.49-50.9-44.08-77.37-23.77-22.06,17.25-52.76,68.48-48.11,97.86,2.92,25.11,28,38.98,50.35,25.78,13.96-8.06,21.34-23.94,25.06-38.84,2.5-9.29,3.91-13.93,11.95-13.78,15.96-.39,50.05,4.33,61.8-8.53,7.18-12.41-15.2-30.81-23.32-38.42ZM707.21,582.6c-5.14-2.18-7.52-8.16-5.32-13.35,2.2-5.19,8.14-7.62,13.28-5.44,5.14,2.18,7.52,8.16,5.32,13.35-2.2,5.19-8.14,7.62-13.28,5.44Z"/>
  <path d="M487.33,532.81c12.41.54,18.51,8.3,18.22,20.42-.51,21.16-30.88,75.82-44.38,92.68-41.59,51.93-66.81,3.58-79.06-40.36-4.86-17.44-11.96-72.66,11.39-73.95,28.6-1.57,25.45,56.71,41.71,60.19,18.26,3.9,24.43-60.19,52.12-58.98Z"/>
</svg>