<?xml version="1.0" encoding="UTF-8"?>
<svg id="Warstwa_1" data-name="Warstwa 1" xmlns="http://www.w3.org/2000/svg" viewBox="0 0 1200 1200">
  <path d="M748.26,492.85l-1.03-.87c-59.45-48.14-148.59-128.68-225.84-69.38-64.4,50.36-154.01,199.9-140.44,285.64,8.53,73.3,81.74,113.8,146.98,75.25,40.76-23.54,62.29-69.89,73.15-113.38,7.31-27.13,11.41-40.67,34.87-40.21,46.59-1.14,146.08,12.65,180.38-24.89,20.97-36.24-44.37-89.94-68.08-112.16ZM626.76,549.22c-14.99-6.37-21.95-23.82-15.54-38.96,6.41-15.14,23.76-22.25,38.75-15.87,14.99,6.38,21.95,23.82,15.54,38.96-6.41,15.14-23.76,22.25-38.75,15.87Z"/>
</svg>